<svg id="Layer_1" data-name="Layer 1" xmlns="http://www.w3.org/2000/svg" viewBox="0 0 1280 1024"><defs><style>.cls-1{fill:#800020;}.cls-2{fill:none;stroke:#800020;stroke-miterlimit:10;stroke-width:3px;}</style></defs><title>PHC LOGO1</title><path class="cls-1" d="M948.76,443.92l-3.6-3.6q-1.6,1.6-6,8.8t-11.4,17.2q-7,10-16.2,21.2a175.54,175.54,0,0,1-20.2,20.8,111.33,111.33,0,0,1-23.4,15.8,56.52,56.52,0,0,1-25.6,6.2q-10.8,0-17-5.4t-6.2-15q0-8.79,4.2-24.4a141.66,141.66,0,0,1,12.6-31,100.37,100.37,0,0,1,21.4-27,47.93,47.93,0,0,1,30.6-12.4q-2,7.2-3.8,12.4a35.34,35.34,0,0,0-1.8,11.6,10.89,10.89,0,0,0,2.2,6.6c1.46,2,3.8,3,7,3a10.14,10.14,0,0,0,7.2-2.6,21.55,21.55,0,0,0,4.6-6.2,25.23,25.23,0,0,0,2.4-7.4,41.41,41.41,0,0,0,.6-6.2q0-15.19-9.2-22.2t-27.2-7a61.89,61.89,0,0,0-22.8,4.4q-58.32,23.4-65.57,79.56Q776.83,488,772,495.32q-6,9-10.4,15a106.72,106.72,0,0,1-11.8,13,39.37,39.37,0,0,1-15.8,9,44.1,44.1,0,0,0-.2-4.6,29.26,29.26,0,0,1-.2-3.4q0-5.19,3.8-13.4t9-17.6q5.19-9.39,10.8-19.2t9.6-17.8a85.14,85.14,0,0,0,4.8-11.8,39.67,39.67,0,0,0,2-12.2,25.84,25.84,0,0,0-2-10,30.63,30.63,0,0,0-5.4-8.6,27.14,27.14,0,0,0-7.6-6,18.22,18.22,0,0,0-19,1,187.56,187.56,0,0,0-25,18.4,231.73,231.73,0,0,0-17.2,17q-7.41,8.2-13.4,16t-12.8,15.4a67.46,67.46,0,0,1,1.4-8.4c.66-2.93,1.4-5.86,2.2-8.8q48.39-47.6,73.6-85.6t25.2-61.6a30.49,30.49,0,0,0-2.4-12.8,23,23,0,0,0-6-8.2,21,21,0,0,0-8-4.2,32,32,0,0,0-8.4-1.2q-16.41,0-31.4,15t-27.8,38a372.86,372.86,0,0,0-23.2,50.8q-10.41,27.81-17.6,53.8-5.46,19.73-9.08,36.45A126.47,126.47,0,0,1,621,499.52a285.26,285.26,0,0,1-27,21.2,9.45,9.45,0,0,1-1.8,1.4,3.61,3.61,0,0,1-1.8.6,4.58,4.58,0,0,1-3.2-1.6,231,231,0,0,0,18.4-33.4,90.24,90.24,0,0,0,8-37.4q0-12.79-2.8-20.8a29.48,29.48,0,0,0-8-12.6,27.4,27.4,0,0,0-12-6.2,66.91,66.91,0,0,0-15.2-1.6q-11.61,0-19.8,5.6t-21,15.2q.79-6.39,1.4-10.4a51.24,51.24,0,0,0,.6-7.6q-.81-5.6-4.4-7.8a15.85,15.85,0,0,0-8.4-2.2q-11.21,0-16.4,2.8a17.14,17.14,0,0,0-7.4,7,26.38,26.38,0,0,0-2.8,9.2,27.21,27.21,0,0,1-2.6,9q-4.8,12-10.2,25.4t-10.8,27.2q-5.4,13.8-10,27.8t-7.8,26.4a294.3,294.3,0,0,0-7,39.2,370.84,370.84,0,0,0-2.2,40.4v13.6q0,3.2-.4,7.2c-.26,2.66-.4,5.2-.4,7.6a14.86,14.86,0,0,0,2.4,7.6,27.52,27.52,0,0,0,6,7,35.45,35.45,0,0,0,8,5,21.13,21.13,0,0,0,8.8,2q9.19,0,9.2-12,0-5.19-.2-10.37c-.14-3.46-.2-6.92-.2-10.37a279.38,279.38,0,0,1,6.2-62.8,518.2,518.2,0,0,1,17-60.5,206.3,206.3,0,0,1,12.6-27.6,167.92,167.92,0,0,1,17.6-26.4,113.72,113.72,0,0,1,21.4-20.4,56,56,0,0,1,24-10.4,58.1,58.1,0,0,1,2.8,18.4q0,13.6-5.2,29.6a142.51,142.51,0,0,1-13.4,29.6,93.23,93.23,0,0,1-18.6,22.6q-10.41,9-20.4,9a10.26,10.26,0,0,0-6.8,2.76,8.49,8.49,0,0,0-3.2,6.68q0,6.69,6.8,10.22a30,30,0,0,0,14,3.54,30.52,30.52,0,0,0,12.6-2.6,30.3,30.3,0,0,1,12.6-2.6,65.41,65.41,0,0,0,29.2-6.89,123,123,0,0,0,26.2-17.4,166.74,166.74,0,0,0,18.88-19.09,77.61,77.61,0,0,0-.68,9,61.66,61.66,0,0,0,.8,9.2,43.28,43.28,0,0,0,2.8,10,23.05,23.05,0,0,0,5.4,8,11.51,11.51,0,0,0,8.2,3.2,10.93,10.93,0,0,0,6.6-2.6,10.71,10.71,0,0,0,4.2-6.2,238.05,238.05,0,0,1,28.6-54,579.12,579.12,0,0,1,38.2-48.4,18,18,0,0,1,3.6,2q-4.8,9.21-10,18.6t-9.6,19.4a172.77,172.77,0,0,0-7.4,20,70.66,70.66,0,0,0-3,20.4,34.58,34.58,0,0,0,2.6,13.2,45.65,45.65,0,0,0,7,11.8,34.62,34.62,0,0,0,10.2,8.6,25.66,25.66,0,0,0,12.6,3.2,29.4,29.4,0,0,0,15.6-5.4,42.36,42.36,0,0,0,11.6-11.8l20.82-32.19a56.42,56.42,0,0,0,2.58,8.39,54.5,54.5,0,0,0,11.6,18.2,49.35,49.35,0,0,0,17.6,11.6,59.08,59.08,0,0,0,21.8,4q18.39,0,33.2-6.4a96.65,96.65,0,0,0,26.4-16.8q8.4-8,17.2-17.2a200.27,200.27,0,0,0,16.2-19.2,179.36,179.36,0,0,0,13.2-20.6,82.49,82.49,0,0,0,8.2-21C950.36,445.79,949.82,445,948.76,443.92Zm-248-53.6q7.59-16.4,12.4-26.8,3.6-7.59,7.6-16.4t8.6-16.8q4.59-8,9-14.2t8.4-8.6a29.18,29.18,0,0,1,7.2-2.8,25.69,25.69,0,0,1,3.2-.4l.8,1.2a24.55,24.55,0,0,0,.2,2.6,35.33,35.33,0,0,1,.2,3.8,57.76,57.76,0,0,1-2,12.6q-2,8.21-9.4,21.8t-21.8,32.8q-14.4,19.2-38.8,45.6Q693.16,406.72,700.76,390.32Z"/><path class="cls-1" d="M184.12,406.79a142.3,142.3,0,0,1,36.25-29.85,137.77,137.77,0,0,1,44.7-16.53,110,110,0,0,1,48.63,2,100.64,100.64,0,0,1,22.89,9.88,173.56,173.56,0,0,1,19.83,14l9.13,7.33c3,2.4,6,4.72,9,6.95s6,4.28,9.07,6.25,6.19,3.8,9.39,5.47a147.43,147.43,0,0,0,39.74,14.86c1.72.3,3.44.67,5.17.92s3.47.51,5.21.63l2.61.25c.87.06,1.74.08,2.6.12,1.74.13,3.48.06,5.23.07a89.39,89.39,0,0,0,21-2.79,84,84,0,0,0,38.28-21.19l1.64,1.14c-.43.9-.88,1.79-1.34,2.69s-.9,1.81-1.45,2.65c-1.08,1.69-2.12,3.46-3.38,5.06-.61.82-1.21,1.64-1.84,2.45l-2,2.31a60,60,0,0,1-4.32,4.42,77.29,77.29,0,0,1-20.76,13.76,86.33,86.33,0,0,1-24.27,7.11c-2.11.29-4.23.57-6.37.67-1.06.06-2.14.15-3.2.19l-3.19.05a112.49,112.49,0,0,1-12.72-.76,107.68,107.68,0,0,1-24.5-6.21,118.71,118.71,0,0,1-22.21-11.39c-3.49-2.24-6.82-4.68-10.09-7.17-1.62-1.26-3.22-2.56-4.8-3.85s-3.1-2.63-4.6-4c-3-2.66-5.91-5.36-8.78-8l-8.5-7.79a157.5,157.5,0,0,0-17.29-13.83,86.66,86.66,0,0,0-19.13-9.63,98.36,98.36,0,0,0-43.24-4.81,123.26,123.26,0,0,0-22,4.19,144.28,144.28,0,0,0-21.17,8,138.72,138.72,0,0,0-19.8,11.31,141.54,141.54,0,0,0-17.92,14.37Z"/><circle class="cls-2" cx="680.66" cy="501.5" r="274.5"/></svg>